<?xml version="1.0" encoding="UTF-8"?><svg id="Camada_1" xmlns="http://www.w3.org/2000/svg" viewBox="0 0 2991.34 450.58"><defs><style>.cls-1{stroke-width:0px;}</style></defs><path class="cls-1" d="m196.44,166.61c-3.25,0-5.89,2.64-5.89,5.89v40.97h10.83c11.88,0,19.41,1.68,22.72,4.94,3.31,3,4.94,10.68,4.94,23.2v25.19c0,15.14-2.63,24.87-7.89,29.13-4.63,4.26-14.3,6.42-29.13,6.42-22.4,0-38.5-9.89-48.39-29.61-10.2-19.46-15.31-51.54-15.31-96.3s5.1-75.68,15.31-94.77c9.89-19.72,26.14-29.61,48.86-29.61,40.49,0,61.2,33.66,67.79,64.69,2.17,1.78,3.53,2.9,5.7,4.68h50.9c3.25,0,5.89-2.64,5.89-5.89V5.89c0-3.25-2.64-5.89-5.89-5.89h-47.03c-4.27,0-7.73,3.46-7.73,7.73v17.2C238.77,9.1,209.11,0,173.24,0,120.91,0,79,17.36,47.39,49.6,15.78,82.2,0,124.8,0,177.45s14.78,97.77,44.39,129.32c29.66,31.29,69.95,46.91,120.96,46.91,32.55,0,65.27-9.2,98.19-27.61v14.05h65.21c3.25,0,5.89-2.64,5.89-5.89v-161.72c0-3.25-2.64-5.89-5.89-5.89h-132.31Z"/><path class="cls-1" d="m1255.08,283.35c-5.26,10.99-14.46,16.52-27.61,16.52s-23.19-5.68-29.14-17.04c-5.26-10.67-7.94-31.08-7.94-61.17s2.68-50.54,7.94-61.22c5.95-11.31,15.31-16.99,28.14-16.99,13.47,0,23.04,5.68,28.61,16.99,5.63,11.67,8.42,32.08,8.42,61.22s-2.79,50.02-8.42,61.69m-599.24-23.19c0,21.98-7.83,43.97-37.71,43.97-16.2,0-29.82-7.89-29.82-29.35,0-29.09,34.18-34.6,59.35-46.05,3.84-1.74,8.18,1.21,8.18,5.43v26Zm674.77-131.64c-25.98-22.35-60.69-35.71-104.13-35.71s-78.84,13.36-103.19,35.71c-25.03,22.09-37.5,52.7-37.5,91.83,0,31.19,8.05,56.86,23.88,77.21h-22.46c-16.41,0-22.88-2.48-22.88-23.62v-87.56c0-32.72-6.36-55.38-19.03-68.06-12.68-12.99-34.03-20.51-64.01-20.51-36.71,0-65.9,15.35-87.62,44.02l-.04-29.62c0-3.25-2.64-5.88-5.89-5.88h-112.93c-3.25,0-5.89,2.64-5.89,5.89v31.75c0,3.17,2.52,5.77,5.68,5.87,12.15.36,23.04,2.73,23.04,17.76v108.92c0,2.79-2.16,21.04-21.93,21.04s-22.51-14.68-22.51-22.3v-93.93c0-42.08-10.26-67.37-64.48-78.58-16.15-3.37-34.45-4.94-54.96-4.94-21.53,0-40.45,1.91-56.6,5.83-1.16.28-2.29.14-3.38-.35-8.05-3.64-17.08-5.48-27.22-5.48-23.45,0-55.8,10.41-72.63,31.24v-14.99c0-4.27-3.46-7.73-7.73-7.73h-110.49c-3.25,0-5.89,2.64-5.89,5.89v31.91c2.23,2.28,3.54,3.62,5.76,5.9,19.16,1.41,23.16,10.21,23.16,23.15v103.55c0,12.19-2.7,18.02-13.48,20.01-6.41,1.18-11.34,6.28-11.34,12.81v24.67c0,3.25,2.64,5.89,5.89,5.89h110.71c3.25,0,5.89-2.64,5.89-5.89v-147.26c0-28.66,22.35-52.33,50.49-52.33,8.52,0,12.83,1.57,14.68,2.68-37.08,14.94-25.03,61.48,19.46,61.48,40.09,0,52.79-37.71,42.84-60.5-1.66-3.8,1.03-8.06,5.17-8.34,14.58-.99,28.06,4.53,34.77,10.41,8.31,7.31,11.99,16.56,11.99,28.87,0,9.52-4.68,19.93-11.89,26.51-6.21,5.62-23.67,11.15-52.8,16.04-34.29,5.95-57.22,14.09-68.84,24.35-11.94,10.21-17.88,25.72-17.88,46.55s6.73,37.45,20.09,48.75c13.36,11.47,32.5,17.04,57.22,17.04,19.25,0,36.08-2.79,50.54-8.57,12.05-4.74,22.09-11.17,30.05-19.24,2.59-2.62,6.59-2.39,8.9.48,6.66,8.25,14.23,13.76,22.79,18.13,10.41,5.26,24.09,9.2,39.03,9.2,16.55,0,29.11-3.4,39.77-7.92.74-.15,1.44-.29,2.19-.44h136.85c3.25,0,5.89-2.64,5.89-5.89v-30.87c0-3.13-2.45-5.67-5.57-5.84-7.97-.43-15.94-3.46-15.94-23.56v-76.1c0-22.67,14.2-48.12,35.71-48.12,14.98,0,33.81,8.1,33.81,40.97v83.25c0,10.9-.17,19.47-10.84,22.47-5.76,1.62-10.14,6.25-10.14,12.24v25.56c0,3.25,2.64,5.89,5.89,5.89h234.24c.29.03.58.05.87.07,12.66,2.16,26.35,3.08,41.22,3.08,44.44,0,79-9.15,103.66-31.56,25.35-22.4,38.02-52.8,38.02-91.35s-12.67-69.1-38.02-91.83"/><path class="cls-1" d="m2448.46,263.46c0,21.99-7.83,43.97-37.71,43.97-16.2,0-29.82-7.89-29.82-29.35,0-29.09,34.18-34.6,59.35-46.05,3.84-1.74,8.18,1.21,8.18,5.43v26Zm-591.14,13.46c-.48,1.53-1.05,2.95-1.63,4.32-5.31,12.1-13.57,18.09-24.77,18.09s-19.46-5.99-24.56-18.09c-5.1-12.05-7.68-30.77-7.68-56.23s2.63-43.81,7.94-56.01c5.26-12.25,13.36-18.36,24.3-18.36,17.51,0,28.03,16.04,31.45,48.23.84,7.79,1.26,16.52,1.26,26.14,0,22.62-2.11,39.92-6.31,51.91m1006.78-137.16c36.53,0,38.84,36.49,38.34,50.87-.11,3.2-2.69,5.72-5.9,5.72h-65.39c-3.19,0-5.76-2.5-5.9-5.69-.59-14.36,1.57-50.9,38.84-50.9m11.1,167.77c-40.03,0-49.46-31.45-50.4-64.72-.09-3.3,2.63-6.02,5.93-6.02h154.59c3.34,0,6.12-2.84,6.02-6.17-2.35-75.6-48.04-129.25-128.23-129.25-25.83,0-49.51,4.33-69.26,15.48-2.23,1.26-4.87.92-6.79-.78-11.05-9.78-25.59-14.86-41.23-14.86-23.35,0-46.96,8.31-60.22,31.08v-14.94c0-4.27-3.46-7.73-7.73-7.73h-109.92c-3.25,0-5.89,2.64-5.89,5.89v31.72c0,3.21,2.6,5.76,5.81,5.88,24.91.95,22.12,8.9,22.12,35.24v91.2c0,9.2-5.47,21.3-21.4,21.3-19.04,0-22.41-15.04-22.41-22.3v-91.25c0-35.71-4.05-71.89-64.48-81.25-16.3-2.52-34.45-4.95-54.96-4.95-22.3,0-41.23,1.74-58.33,6.26-29.45,7.89-40.49,15.78-50.38,28.93-11.36,15.14-14.09,65.85,36.71,65.85,39.52,0,51.88-36.4,41.57-60.81-1.51-3.57.99-7.61,4.86-7.9,9.68-.74,24.32.63,35.56,10.23,8.31,6.94,12.04,16.56,12.04,28.87,0,9.52-4.68,19.93-11.88,26.51-6.21,5.62-23.67,11.15-52.81,16.04-34.29,5.95-57.22,14.1-68.84,24.36-11.94,10.2-17.88,25.71-17.88,46.54,0,5.26.42,10.21,1.26,14.89h-7.89c-7.31-.47-14.2-2.74-16.41-4.95-3-3-4.36-9.26-4.36-18.93V115.51c0-3.25-2.64-5.89-5.89-5.89h-108.45c-3.25,0-5.89,2.64-5.89,5.89v31.05c0,3.14,2.5,5.55,5.63,5.87,5.52.56,9.31,2.03,11.36,4.31,3,3.68,4.53,10.04,4.53,19.03v72.63c0,14.68-3.32,29.14-10,37.82-6.68,8.68-15.73,14.62-27.09,14.62-15.31,0-32.5-12.73-32.5-39.18v-75.1l-.05-71.06c0-3.25-2.64-5.89-5.89-5.89h-219.26c-3.25,0-5.89,2.64-5.89,5.89v25.72c-11.94-13.88-24.09-24.04-36.45-30.45-12.41-6.47-26.19-9.67-41.39-9.67-32.03,0-56.59,10.57-73.58,31.71-12.88,15.99-20.88,37.45-24.04,64.43-4.89-8.84-11.2-16.73-19.25-23.62-20.09-17.09-55.96-31.77-107.61-43.91l-21.24-4.47c-36.5-7.57-54.8-18.72-54.8-33.55,0-9.89,4.79-18.25,14.31-25.19,9.57-6.57,21.72-9.83,36.56-9.83,48.39,0,78.46,21.71,90.18,65.12,2.09,1.65,3.54,2.8,5.62,4.45h45.41c3.25,0,5.89-2.64,5.89-5.89V9.2c0-3.25-2.64-5.89-5.89-5.89h-42.66c-4.27,0-7.73,3.46-7.73,7.73v16.96c-32.92-16.46-69.42-24.67-109.61-24.67s-72.74,10.2-97.72,30.61c-24.67,20.72-37.03,47.54-37.03,80.47,0,15.46,3.21,29.29,9.63,41.44,6.42,12.2,16.2,23.19,29.35,33.08,5.62,4.31,14.67,8.89,27.19,13.83,12.46,4.94,30.77,11.04,54.8,18.25l29.61,8.42c39.13,10.83,58.74,24.19,58.74,39.97,0,10.2-4.52,18.51-13.57,24.93-9.1,6.41-20.98,9.62-35.82,9.62-24.35,0-45.91-7.05-64.68-21.19-17.12-14.04-29.67-32.78-37.66-56.24-2.02-1.49-3.48-2.55-5.5-4.04h-37.84c-3.25,0-5.89,2.64-5.89,5.89v109.13c0,3.25,2.64,5.89,5.89,5.89h51.64v-15.72c35.5,17.78,72.63,29.32,110.82,29.32,43.12,0,77.15-12.54,102.18-32.31,10.61-8.52,18.93-18.14,25.07-28.86,3.22-5.63,11.11-5.44,13.83.44,3.51,7.56,7.69,14.55,12.53,20.95,17.15,22.78,40.44,34.56,69.84,34.56,25.17,0,46.51-8.36,64.06-24.64,3.76-3.49,9.84-.81,9.84,4.32v52.51c0,11.12-.22,21.39-19.94,22.98-3.15.25-5.68,2.72-5.68,5.88v31.88c0,3.25,2.64,5.89,5.89,5.89h136.69c3.25,0,5.89-2.64,5.89-5.89v-31.88c0-3.16-2.52-5.63-5.68-5.88-19.72-1.59-19.94-11.86-19.94-22.98,0,0,.11-146.57.11-208.16,0-17.04,11.73-22.77,21.51-22.77,17.94,0,22.56,13.1,22.56,22.77l-.16,87.57c0,32.71,4.47,55.43,17.19,68.11,12.68,12.99,34.03,20.3,64.06,20.3,36.71,0,65.95-15.15,87.67-43.86v29.61c0,3.25,2.64,5.89,5.89,5.89h150.36c.75.16,1.45.32,2.19.48,11.54,5.26,25.66,7.88,42.4,7.88,19.25,0,36.08-2.79,50.54-8.57,12.05-4.74,22.09-11.18,30.05-19.24,2.59-2.62,6.59-2.38,8.9.48,6.66,8.25,14.23,13.76,22.79,18.13,10.41,5.26,24.08,9.21,39.02,9.21,16.39,0,28.85-3.45,39.4-7.92.75-.15,1.44-.29,2.19-.45h137.8c3.25,0,5.89-2.64,5.89-5.89v-36.65s0,0,0,0c-17.51,0-23.19-2.48-23.19-24.93v-62.27c0-30.61,10.04-66.37,39.71-66.37,8.4.03,15.02,3.43,19.24,6.51,3.16,2.3,3.85,6.51,2.01,9.95-9.74,18.19-13.79,41.16-13.79,61.42,0,77.84,41.45,126.59,127.85,126.59,52.37,0,109-24.92,120.55-80.59.75-3.62-2.22-7.08-5.92-7.08h-46.71c-2.15,1.77-3.57,2.94-5.72,4.72-6.72,26.54-33.35,38.72-50.11,38.72"/></svg>